<?xml version="1.0" encoding="utf-8"?>
<svg width="1966.236" height="1154.41" viewBox="0 0 1966.236 1154.41" fill="none" stroke="none" version="1.1" xmlns:xlink="http://www.w3.org/1999/xlink" xmlns="http://www.w3.org/2000/svg">
  <defs>
    <rect id="rect_1" x="0" y="0" width="151" height="218.357" />
    <clipPath id="clip_path_2">
      <use xlink:href="#rect_1" />
    </clipPath>
  </defs>
  <g id="Background Filler " opacity="1" transform="translate(32 0)">
    <path d="M1920 0L1920 0L1920 1080L0 1080L0 0L1920 0Z" style="mix-blend-mode:normal;" />
    <g clip-path="url(#clip_path_2)" style="mix-blend-mode:normal;" transform="matrix(0.875 0.485 -0.485 0.875 114.075 106.82)">
      <path d="M53.5909 220.091L53.5909 218.864Q53.7955 199.33 57.6818 187.773Q61.5682 176.216 68.7273 169.057Q75.8864 161.898 85.9091 155.864Q94.9091 150.443 101.045 141.648Q107.182 132.852 107.182 120.682Q107.182 105.648 97.0057 96.8011Q86.8296 87.9546 72.4091 87.9545Q64.0227 87.9546 56.25 91.4318Q48.4773 94.9091 43.2614 102.375Q38.0455 109.841 37.2273 121.909L11.4545 121.909Q12.2727 104.523 20.5057 92.1477Q28.7386 79.7727 42.2898 73.2273Q55.8409 66.6818 72.4091 66.6818Q90.4091 66.6818 103.756 73.8409Q117.102 81 124.415 93.4773Q131.727 105.955 131.727 121.909Q131.727 138.886 124.159 150.955Q116.591 163.023 103.091 171.205Q89.5909 179.591 84.0171 189.716Q78.4432 199.841 78.1364 218.864L78.1364 220.091L53.5909 220.091ZM66.6818 280.636Q59.1136 280.636 53.6932 275.216Q48.2727 269.795 48.2727 262.227Q48.2727 254.659 53.6932 249.239Q59.1136 243.818 66.6818 243.818Q74.25 243.818 79.6705 249.239Q85.0909 254.659 85.0909 262.227Q85.0909 269.795 79.6705 275.216Q74.25 280.636 66.6818 280.636Z" transform="translate(2.477 0)" style="fill:#47005A;" />
    </g>
    <g clip-path="url(#clip_path_2)" style="mix-blend-mode:normal;" transform="matrix(0.966 -0.259 0.259 0.966 310.093 369.726)">
      <path d="M53.5909 220.091L53.5909 218.864Q53.7955 199.33 57.6818 187.773Q61.5682 176.216 68.7273 169.057Q75.8864 161.898 85.9091 155.864Q94.9091 150.443 101.045 141.648Q107.182 132.852 107.182 120.682Q107.182 105.648 97.0057 96.8011Q86.8296 87.9546 72.4091 87.9545Q64.0227 87.9546 56.25 91.4318Q48.4773 94.9091 43.2614 102.375Q38.0455 109.841 37.2273 121.909L11.4545 121.909Q12.2727 104.523 20.5057 92.1477Q28.7386 79.7727 42.2898 73.2273Q55.8409 66.6818 72.4091 66.6818Q90.4091 66.6818 103.756 73.8409Q117.102 81 124.415 93.4773Q131.727 105.955 131.727 121.909Q131.727 138.886 124.159 150.955Q116.591 163.023 103.091 171.205Q89.5909 179.591 84.0171 189.716Q78.4432 199.841 78.1364 218.864L78.1364 220.091L53.5909 220.091ZM66.6818 280.636Q59.1136 280.636 53.6932 275.216Q48.2727 269.795 48.2727 262.227Q48.2727 254.659 53.6932 249.239Q59.1136 243.818 66.6818 243.818Q74.25 243.818 79.6705 249.239Q85.0909 254.659 85.0909 262.227Q85.0909 269.795 79.6705 275.216Q74.25 280.636 66.6818 280.636Z" transform="translate(2.477 0)" style="fill:#47005A;" />
    </g>
    <g clip-path="url(#clip_path_2)" style="mix-blend-mode:normal;" transform="matrix(0.966 -0.259 0.259 0.966 1666.075 559.726)">
      <path d="M53.5909 220.091L53.5909 218.864Q53.7955 199.33 57.6818 187.773Q61.5682 176.216 68.7273 169.057Q75.8864 161.898 85.9091 155.864Q94.9091 150.443 101.045 141.648Q107.182 132.852 107.182 120.682Q107.182 105.648 97.0057 96.8011Q86.8296 87.9546 72.4091 87.9545Q64.0227 87.9546 56.25 91.4318Q48.4773 94.9091 43.2614 102.375Q38.0455 109.841 37.2273 121.909L11.4545 121.909Q12.2727 104.523 20.5057 92.1477Q28.7386 79.7727 42.2898 73.2273Q55.8409 66.6818 72.4091 66.6818Q90.4091 66.6818 103.756 73.8409Q117.102 81 124.415 93.4773Q131.727 105.955 131.727 121.909Q131.727 138.886 124.159 150.955Q116.591 163.023 103.091 171.205Q89.5909 179.591 84.0171 189.716Q78.4432 199.841 78.1364 218.864L78.1364 220.091L53.5909 220.091ZM66.6818 280.636Q59.1136 280.636 53.6932 275.216Q48.2727 269.795 48.2727 262.227Q48.2727 254.659 53.6932 249.239Q59.1136 243.818 66.6818 243.818Q74.25 243.818 79.6705 249.239Q85.0909 254.659 85.0909 262.227Q85.0909 269.795 79.6705 275.216Q74.25 280.636 66.6818 280.636Z" transform="translate(2.477 0)" style="fill:#47005A;" />
    </g>
    <g clip-path="url(#clip_path_2)" style="mix-blend-mode:normal;" transform="matrix(0.809 0.588 -0.588 0.809 1812.075 46.432)">
      <path d="M53.5909 220.091L53.5909 218.864Q53.7955 199.33 57.6818 187.773Q61.5682 176.216 68.7273 169.057Q75.8864 161.898 85.9091 155.864Q94.9091 150.443 101.045 141.648Q107.182 132.852 107.182 120.682Q107.182 105.648 97.0057 96.8011Q86.8296 87.9546 72.4091 87.9545Q64.0227 87.9546 56.25 91.4318Q48.4773 94.9091 43.2614 102.375Q38.0455 109.841 37.2273 121.909L11.4545 121.909Q12.2727 104.523 20.5057 92.1477Q28.7386 79.7727 42.2898 73.2273Q55.8409 66.6818 72.4091 66.6818Q90.4091 66.6818 103.756 73.8409Q117.102 81 124.415 93.4773Q131.727 105.955 131.727 121.909Q131.727 138.886 124.159 150.955Q116.591 163.023 103.091 171.205Q89.5909 179.591 84.0171 189.716Q78.4432 199.841 78.1364 218.864L78.1364 220.091L53.5909 220.091ZM66.6818 280.636Q59.1136 280.636 53.6932 275.216Q48.2727 269.795 48.2727 262.227Q48.2727 254.659 53.6932 249.239Q59.1136 243.818 66.6818 243.818Q74.25 243.818 79.6705 249.239Q85.0909 254.659 85.0909 262.227Q85.0909 269.795 79.6705 275.216Q74.25 280.636 66.6818 280.636Z" transform="translate(2.477 0)" style="fill:#47005A;" />
    </g>
    <g clip-path="url(#clip_path_2)" style="mix-blend-mode:normal;" transform="matrix(0.809 0.588 -0.588 0.809 1515.075 847.432)">
      <path d="M53.5909 220.091L53.5909 218.864Q53.7955 199.33 57.6818 187.773Q61.5682 176.216 68.7273 169.057Q75.8864 161.898 85.9091 155.864Q94.9091 150.443 101.045 141.648Q107.182 132.852 107.182 120.682Q107.182 105.648 97.0057 96.8011Q86.8296 87.9546 72.4091 87.9545Q64.0227 87.9546 56.25 91.4318Q48.4773 94.9091 43.2614 102.375Q38.0455 109.841 37.2273 121.909L11.4545 121.909Q12.2727 104.523 20.5057 92.1477Q28.7386 79.7727 42.2898 73.2273Q55.8409 66.6818 72.4091 66.6818Q90.4091 66.6818 103.756 73.8409Q117.102 81 124.415 93.4773Q131.727 105.955 131.727 121.909Q131.727 138.886 124.159 150.955Q116.591 163.023 103.091 171.205Q89.5909 179.591 84.0171 189.716Q78.4432 199.841 78.1364 218.864L78.1364 220.091L53.5909 220.091ZM66.6818 280.636Q59.1136 280.636 53.6932 275.216Q48.2727 269.795 48.2727 262.227Q48.2727 254.659 53.6932 249.239Q59.1136 243.818 66.6818 243.818Q74.25 243.818 79.6705 249.239Q85.0909 254.659 85.0909 262.227Q85.0909 269.795 79.6705 275.216Q74.25 280.636 66.6818 280.636Z" transform="translate(2.477 0)" style="fill:#47005A;" />
    </g>
    <g clip-path="url(#clip_path_2)" style="mix-blend-mode:normal;" transform="matrix(0.707 -0.707 0.707 0.707 1312.075 278.315)">
      <path d="M53.5909 220.091L53.5909 218.864Q53.7955 199.33 57.6818 187.773Q61.5682 176.216 68.7273 169.057Q75.8864 161.898 85.9091 155.864Q94.9091 150.443 101.045 141.648Q107.182 132.852 107.182 120.682Q107.182 105.648 97.0057 96.8011Q86.8296 87.9546 72.4091 87.9545Q64.0227 87.9546 56.25 91.4318Q48.4773 94.9091 43.2614 102.375Q38.0455 109.841 37.2273 121.909L11.4545 121.909Q12.2727 104.523 20.5057 92.1477Q28.7386 79.7727 42.2898 73.2273Q55.8409 66.6818 72.4091 66.6818Q90.4091 66.6818 103.756 73.8409Q117.102 81 124.415 93.4773Q131.727 105.955 131.727 121.909Q131.727 138.886 124.159 150.955Q116.591 163.023 103.091 171.205Q89.5909 179.591 84.0171 189.716Q78.4432 199.841 78.1364 218.864L78.1364 220.091L53.5909 220.091ZM66.6818 280.636Q59.1136 280.636 53.6932 275.216Q48.2727 269.795 48.2727 262.227Q48.2727 254.659 53.6932 249.239Q59.1136 243.818 66.6818 243.818Q74.25 243.818 79.6705 249.239Q85.0909 254.659 85.0909 262.227Q85.0909 269.795 79.6705 275.216Q74.25 280.636 66.6818 280.636Z" transform="translate(2.477 0)" style="fill:#47005A;" />
    </g>
    <g clip-path="url(#clip_path_2)" style="mix-blend-mode:normal;" transform="matrix(-0.276 0.961 -0.961 -0.276 219.519 755.396)">
      <path d="M53.5909 220.091L53.5909 218.864Q53.7955 199.33 57.6818 187.773Q61.5682 176.216 68.7273 169.057Q75.8864 161.898 85.9091 155.864Q94.9091 150.443 101.045 141.648Q107.182 132.852 107.182 120.682Q107.182 105.648 97.0057 96.8011Q86.8296 87.9546 72.4091 87.9545Q64.0227 87.9546 56.25 91.4318Q48.4773 94.9091 43.2614 102.375Q38.0455 109.841 37.2273 121.909L11.4545 121.909Q12.2727 104.523 20.5057 92.1477Q28.7386 79.7727 42.2898 73.2273Q55.8409 66.6818 72.4091 66.6818Q90.4091 66.6818 103.756 73.8409Q117.102 81 124.415 93.4773Q131.727 105.955 131.727 121.909Q131.727 138.886 124.159 150.955Q116.591 163.023 103.091 171.205Q89.5909 179.591 84.0171 189.716Q78.4432 199.841 78.1364 218.864L78.1364 220.091L53.5909 220.091ZM66.6818 280.636Q59.1136 280.636 53.6932 275.216Q48.2727 269.795 48.2727 262.227Q48.2727 254.659 53.6932 249.239Q59.1136 243.818 66.6818 243.818Q74.25 243.818 79.6705 249.239Q85.0909 254.659 85.0909 262.227Q85.0909 269.795 79.6705 275.216Q74.25 280.636 66.6818 280.636Z" transform="translate(2.477 0)" style="fill:#47005A;" />
    </g>
  </g>
</svg>