<?xml version="1.0" encoding="utf-8"?>
<svg width="52" height="58" viewBox="0 0 52 58" fill="none" xmlns="http://www.w3.org/2000/svg">
  <g id="ReadQuest Logo 40x40" transform="translate(6 2)">
    <path id="Rectangle" d="M30 0C35.5236 0 40 4.4764 40 10L40 30C40 35.5236 35.5236 40 30 40L10 40C4.4764 40 0 35.5236 0 30L0 10C0 4.4764 4.4764 0 10 0L30 0Z" fill="#D1C4E9" transform="translate(0 3)" />
    <path d="M0.96 17.376Q0.96 14.472 1.62 12.768Q2.28 11.064 3.9 10.32Q5.52 9.576 8.424 9.576Q10.608 9.576 12.048 9.984Q13.488 10.392 14.328 11.304Q15.168 12.216 15.516 13.716Q15.864 15.216 15.864 17.376Q15.864 19.584 15.504 21.084Q15.144 22.584 14.304 23.496Q13.464 24.408 11.976 24.816L11.976 24.936Q12.696 25.728 13.284 26.568Q13.872 27.408 14.304 28.176L14.304 28.248L9.936 28.248L8.232 25.2C6.344 25.184 4.872 24.924 3.816 24.42Q2.232 23.664 1.596 21.96Q0.96 20.256 0.96 17.376ZM8.424 21.84Q9.96 21.84 10.728 21.456Q11.496 21.072 11.76 20.1Q12.024 19.128 12.024 17.376Q12.024 15.648 11.76 14.688Q11.496 13.728 10.728 13.332Q9.96 12.936 8.424 12.936Q6.912 12.936 6.132 13.332Q5.352 13.728 5.076 14.688Q4.8 15.648 4.8 17.376Q4.8 19.128 5.076 20.1Q5.352 21.072 6.132 21.456Q6.912 21.84 8.424 21.84Z" fill="#2A0146" transform="translate(21 12)" />
    <path d="M5.28 24.984L1.44 24.984L1.44 9.792L8.688 9.792Q11.544 9.792 12.852 11.076Q14.16 12.36 14.16 14.856Q14.16 16.728 13.224 18.06Q12.288 19.392 10.752 19.728L10.728 19.8Q11.328 20.184 12.048 21.072Q12.768 21.96 13.476 23.004Q14.184 24.048 14.736 24.96L14.736 24.984L10.272 24.984L7.68 21.144Q7.344 20.64 7.14 20.424Q6.936 20.208 6.66 20.16Q6.384 20.112 5.784 20.112L5.28 20.112L5.28 24.984ZM8.064 12.912L5.28 12.912L5.28 16.992L8.064 16.992Q9.264 16.992 9.732 16.512Q10.2 16.032 10.2 14.952Q10.2 13.872 9.732 13.392Q9.264 12.912 8.064 12.912Z" fill="#000000" transform="translate(3 0)" />
    <line id="Line" x1="0" y1="0" x2="15" y2="0" fill="none" stroke-width="1" stroke="#FFFFFF" stroke-linecap="square" transform="translate(5 26)" />
    <line id="Line" x1="0" y1="0" x2="15" y2="0.013" fill="none" stroke-width="1" stroke="#FFFFFF" stroke-linecap="square" transform="translate(20 19)" />
    <line id="Line" x1="0" y1="36" x2="0" y2="0" fill="none" stroke-width="1" stroke="#FFFFFF" stroke-linecap="square" transform="translate(19 5)" />
  </g>
</svg>